<?xml version="1.0" encoding="UTF-8" ?>
<!DOCTYPE svg PUBLIC "-//W3C//DTD SVG 1.1//EN" "http://www.w3.org/Graphics/SVG/1.1/DTD/svg11.dtd">
<svg width="960pt" height="540pt" viewBox="0 0 960 540" version="1.1" xmlns="http://www.w3.org/2000/svg">
<g id="#b0c6ebff">
<path fill="#b0c6eb" opacity="1.00" d=" M 0.00 0.00 L 156.44 0.00 C 163.87 8.09 177.79 4.40 185.26 12.72 C 189.65 17.54 203.87 24.06 195.53 31.53 C 188.49 40.84 175.41 41.36 167.85 49.83 C 149.82 57.23 130.10 47.17 112.10 54.13 C 108.57 55.67 100.98 51.71 101.19 56.61 C 109.01 58.97 114.17 64.78 118.20 71.56 C 107.89 75.57 97.27 73.69 86.04 75.04 C 78.91 75.69 87.73 61.76 78.15 64.66 C 72.27 60.85 65.38 67.76 59.65 63.40 C 47.42 58.20 35.55 70.75 23.86 68.17 C 18.63 58.67 8.56 64.23 0.00 64.01 L 0.00 0.00 Z" />
</g>
<g id="#bccff6ff">
<path fill="#bccff6" opacity="1.00" d=" M 156.44 0.00 L 342.46 0.00 C 337.18 6.19 327.02 6.90 324.94 15.98 C 329.80 24.14 340.97 22.47 348.98 25.12 C 366.98 32.00 387.04 35.14 405.90 29.96 C 417.40 26.31 429.02 30.04 439.82 33.97 C 444.98 43.96 462.39 45.15 470.26 54.72 C 474.35 60.57 480.01 70.73 473.22 76.25 C 460.09 83.10 444.67 81.91 430.34 82.66 C 405.19 76.21 378.02 72.69 353.08 81.19 C 342.56 84.15 322.82 73.60 320.50 90.57 C 310.11 95.92 297.44 94.51 286.11 96.61 C 276.17 98.11 258.08 89.21 253.46 102.50 C 245.29 102.48 235.22 109.95 241.80 118.31 C 249.53 120.29 257.04 123.74 262.31 129.92 C 247.50 125.95 231.28 126.57 217.79 118.32 C 204.77 114.01 192.08 107.95 178.36 106.64 C 169.06 100.77 159.86 108.56 150.53 105.48 C 132.96 110.48 115.77 98.30 98.75 101.63 C 82.92 114.29 61.48 100.91 44.36 109.40 C 30.51 103.38 15.04 104.45 0.00 105.12 L 0.00 64.01 C 8.56 64.23 18.63 58.67 23.86 68.17 C 35.55 70.75 47.42 58.20 59.65 63.40 C 65.38 67.76 72.27 60.85 78.15 64.66 C 87.73 61.76 78.91 75.69 86.04 75.04 C 97.27 73.69 107.89 75.57 118.20 71.56 C 114.17 64.78 109.01 58.97 101.19 56.61 C 100.98 51.71 108.57 55.67 112.10 54.13 C 130.10 47.17 149.82 57.23 167.85 49.83 C 175.41 41.36 188.49 40.84 195.53 31.53 C 203.87 24.06 189.65 17.54 185.26 12.72 C 177.79 4.40 163.87 8.09 156.44 0.00 Z" />
</g>
<g id="#b2c6eaff">
<path fill="#b2c6ea" opacity="1.00" d=" M 342.46 0.00 L 488.40 0.00 C 489.00 8.85 475.00 4.47 475.89 11.00 C 466.22 12.69 472.34 24.73 466.14 30.25 C 466.04 37.57 477.39 37.09 481.02 41.96 C 495.55 56.98 518.01 72.55 539.72 65.37 C 557.63 67.45 576.03 67.22 593.81 64.21 C 600.08 66.71 610.82 70.41 609.64 78.83 C 607.66 96.13 633.00 91.07 643.01 88.02 C 644.92 81.90 650.25 78.92 655.78 83.22 C 674.64 90.48 694.94 83.91 713.77 79.71 C 712.17 68.10 719.86 81.39 725.29 78.81 C 731.03 79.61 726.06 69.69 723.57 74.56 C 720.11 78.44 718.62 71.68 723.67 71.40 C 720.63 64.50 717.78 53.23 725.76 48.74 C 749.11 40.04 773.66 45.29 797.49 43.42 C 828.26 31.85 860.58 46.50 891.67 41.32 C 914.75 50.84 937.05 35.54 960.00 36.98 L 960.00 50.88 C 934.25 55.05 907.92 53.47 882.48 60.39 C 864.72 60.49 843.72 55.96 828.35 66.12 C 830.28 79.46 814.56 68.06 809.11 76.08 C 803.29 86.16 790.49 86.29 780.58 89.34 C 779.55 95.65 788.18 110.77 780.08 115.00 C 779.56 106.72 774.90 97.52 777.77 89.79 C 767.54 93.80 755.98 92.21 745.99 96.98 C 738.64 100.17 731.24 104.23 723.15 104.85 C 709.97 100.70 695.65 99.17 682.22 103.10 C 670.48 106.86 656.77 99.78 645.85 106.81 C 625.95 111.26 604.50 108.60 589.13 93.89 C 582.56 87.40 573.27 79.35 563.69 80.67 C 562.37 91.16 577.75 91.15 581.88 99.10 C 588.16 105.17 575.08 103.09 571.59 106.48 C 567.04 106.75 554.51 105.36 566.75 108.45 C 570.63 112.72 558.19 111.18 555.80 110.12 C 534.90 113.68 510.89 119.51 488.99 114.04 C 477.65 119.38 471.56 110.75 460.81 110.19 C 440.23 98.13 416.42 111.09 395.12 101.61 C 395.27 94.79 407.44 98.46 410.70 92.76 C 412.58 89.23 416.44 86.81 420.50 87.41 C 442.54 90.36 465.07 86.97 486.81 92.33 C 492.05 93.27 497.58 91.72 499.52 86.44 C 505.67 89.03 508.92 80.03 501.92 79.02 C 489.93 76.24 483.00 67.55 477.56 57.46 C 469.48 44.15 453.11 40.16 439.82 33.97 C 429.02 30.04 417.40 26.31 405.90 29.96 C 387.04 35.14 366.98 32.00 348.98 25.12 C 340.97 22.47 329.80 24.14 324.94 15.98 C 327.02 6.90 337.18 6.19 342.46 0.00 Z" />
</g>
<g id="#a9bfe5ff">
<path fill="#a9bfe5" opacity="1.00" d=" M 488.40 0.00 L 960.00 0.00 L 960.00 36.98 C 937.05 35.54 914.75 50.84 891.67 41.32 C 860.58 46.50 828.26 31.85 797.49 43.42 C 773.66 45.29 749.11 40.04 725.76 48.74 C 717.78 53.23 720.63 64.50 723.67 71.40 C 718.62 71.68 720.11 78.44 723.57 74.56 C 726.06 69.69 731.03 79.61 725.29 78.81 C 719.86 81.39 712.17 68.10 713.77 79.71 C 694.94 83.91 674.64 90.48 655.78 83.22 C 650.25 78.92 644.92 81.90 643.01 88.02 C 633.00 91.07 607.66 96.13 609.64 78.83 C 610.82 70.41 600.08 66.71 593.81 64.21 C 576.03 67.22 557.63 67.45 539.72 65.37 C 518.01 72.55 495.55 56.98 481.02 41.96 C 477.39 37.09 466.04 37.57 466.14 30.25 C 472.34 24.73 466.22 12.69 475.89 11.00 C 475.00 4.47 489.00 8.85 488.40 0.00 Z" />
</g>
<g id="#bbcbeeff">
<path fill="#bbcbee" opacity="1.00" d=" M 439.82 33.97 C 453.11 40.16 469.48 44.15 477.56 57.46 C 483.00 67.55 489.93 76.24 501.92 79.02 C 508.92 80.03 505.67 89.03 499.52 86.44 C 497.58 91.72 492.05 93.27 486.81 92.33 C 465.07 86.97 442.54 90.36 420.50 87.41 C 416.44 86.81 412.58 89.23 410.70 92.76 C 407.44 98.46 395.27 94.79 395.12 101.61 C 416.42 111.09 440.23 98.13 460.81 110.19 C 471.56 110.75 477.65 119.38 488.99 114.04 C 510.89 119.51 534.90 113.68 555.80 110.12 C 558.19 111.18 570.63 112.72 566.75 108.45 C 554.51 105.36 567.04 106.75 571.59 106.48 C 575.08 103.09 588.16 105.17 581.88 99.10 C 577.75 91.15 562.37 91.16 563.69 80.67 C 573.27 79.35 582.56 87.40 589.13 93.89 C 604.50 108.60 625.95 111.26 645.85 106.81 C 656.77 99.78 670.48 106.86 682.22 103.10 C 695.65 99.17 709.97 100.70 723.15 104.85 C 731.24 104.23 738.64 100.17 745.99 96.98 C 755.98 92.21 767.54 93.80 777.77 89.79 C 774.90 97.52 779.56 106.72 780.08 115.00 C 788.18 110.77 779.55 95.65 780.58 89.34 C 790.49 86.29 803.29 86.16 809.11 76.08 C 814.56 68.06 830.28 79.46 828.35 66.12 C 843.72 55.96 864.72 60.49 882.48 60.39 C 907.92 53.47 934.25 55.05 960.00 50.88 L 960.00 123.74 C 946.11 121.96 932.25 124.95 918.48 126.44 C 904.96 125.95 903.75 147.45 891.41 147.64 C 891.34 139.79 898.82 132.76 895.91 125.12 C 891.86 126.42 887.49 127.18 883.40 125.73 C 873.40 120.02 873.06 139.68 864.08 135.82 C 869.14 128.23 861.82 119.74 855.31 127.30 C 848.39 133.79 849.38 121.99 843.35 122.57 C 830.93 122.36 817.73 124.25 805.79 121.19 C 802.36 110.81 789.00 109.17 782.02 116.95 C 775.52 112.51 765.36 110.35 760.93 118.99 C 764.14 122.64 772.89 120.90 777.10 117.97 C 786.35 125.14 766.51 125.70 762.00 126.64 C 754.77 118.31 742.88 128.63 734.21 130.20 C 731.09 137.85 747.79 131.04 748.93 137.79 C 742.56 139.80 734.11 139.61 728.14 135.39 C 724.71 137.20 722.17 141.17 717.97 141.09 C 715.99 134.75 726.40 133.66 725.77 128.35 C 714.52 122.39 701.63 127.04 689.98 129.83 C 681.14 129.26 672.13 120.30 663.37 124.39 C 657.81 129.39 649.13 124.54 644.08 130.14 C 633.37 132.19 622.77 128.49 613.41 123.56 C 603.26 118.20 600.59 128.73 593.80 132.85 C 587.79 141.85 595.37 152.18 596.36 161.63 C 599.71 169.92 600.95 151.09 606.33 158.67 C 616.80 169.56 592.92 177.99 587.08 167.85 C 586.13 164.90 585.15 161.96 584.15 159.03 C 579.78 151.08 581.77 137.56 571.89 134.02 C 565.79 136.98 559.28 138.33 557.63 145.82 C 550.70 144.57 557.60 133.13 551.67 129.32 C 542.43 124.54 531.20 125.48 522.00 129.94 C 505.70 131.85 489.52 135.29 473.03 135.00 C 469.87 135.09 467.94 137.95 465.91 139.95 C 473.81 132.28 463.95 125.80 457.28 124.34 C 453.08 128.64 451.96 135.12 449.14 140.36 C 448.29 133.62 431.07 133.95 432.87 141.24 C 421.26 135.94 411.63 125.31 398.16 125.10 C 395.20 130.77 398.37 135.22 403.23 137.67 C 399.16 136.97 397.01 139.45 395.60 142.87 C 389.65 144.64 388.12 135.06 381.42 138.55 C 358.75 142.63 336.37 135.12 314.03 132.24 C 296.83 133.38 279.08 135.11 262.31 129.92 C 257.04 123.74 249.53 120.29 241.80 118.31 C 235.22 109.95 245.29 102.48 253.46 102.50 C 258.08 89.21 276.17 98.11 286.11 96.61 C 297.44 94.51 310.11 95.92 320.50 90.57 C 322.82 73.60 342.56 84.15 353.08 81.19 C 378.02 72.69 405.19 76.21 430.34 82.66 C 444.67 81.91 460.09 83.10 473.22 76.25 C 480.01 70.73 474.35 60.57 470.26 54.72 C 462.39 45.15 444.98 43.96 439.82 33.97 Z" />
</g>
<g id="#c7d2f5ff">
<path fill="#c7d2f5" opacity="1.00" d=" M 98.75 101.63 C 115.77 98.30 132.96 110.48 150.53 105.48 C 159.86 108.56 169.06 100.77 178.36 106.64 C 192.08 107.95 204.77 114.01 217.79 118.32 C 231.28 126.57 247.50 125.95 262.31 129.92 C 279.08 135.11 296.83 133.38 314.03 132.24 C 336.37 135.12 358.75 142.63 381.42 138.55 C 388.12 135.06 389.65 144.64 395.60 142.87 C 397.01 139.45 399.16 136.97 403.23 137.67 C 412.22 142.21 420.66 147.78 429.46 152.61 C 440.95 155.61 429.94 146.21 432.87 141.24 C 431.07 133.95 448.29 133.62 449.14 140.36 C 446.91 147.00 442.28 153.83 441.67 160.33 C 456.42 168.47 461.21 149.91 465.91 139.95 C 467.94 137.95 469.87 135.09 473.03 135.00 C 489.52 135.29 505.70 131.85 522.00 129.94 C 531.20 125.48 542.43 124.54 551.67 129.32 C 557.60 133.13 550.70 144.57 557.63 145.82 C 559.28 138.33 565.79 136.98 571.89 134.02 C 581.77 137.56 579.78 151.08 584.15 159.03 C 575.12 150.41 560.33 156.70 549.21 155.26 C 543.53 162.21 533.07 158.40 528.42 166.25 C 518.19 162.54 518.16 181.52 508.95 185.19 C 510.22 174.68 517.23 165.87 518.66 155.38 C 499.88 154.67 481.05 154.89 462.28 155.18 C 459.71 157.05 456.90 162.35 460.96 164.08 C 469.61 167.20 478.84 169.01 487.24 172.84 C 489.90 174.28 485.93 176.99 484.10 175.90 C 474.97 172.94 465.84 169.99 456.62 167.36 C 450.80 165.31 451.98 177.52 446.39 175.74 C 440.94 169.13 438.36 159.86 430.60 155.30 C 422.26 156.03 412.34 152.22 404.78 156.80 C 406.25 158.84 407.88 160.75 409.42 162.74 C 402.76 160.51 397.19 156.06 390.91 153.08 C 385.04 153.93 379.56 158.62 373.78 158.30 C 372.74 151.40 364.26 154.23 359.51 155.27 C 359.97 148.66 348.53 152.78 345.01 151.04 C 332.69 152.02 312.81 141.20 309.95 159.99 C 301.28 166.22 313.53 149.58 305.59 148.29 C 239.71 147.25 173.79 143.58 108.93 132.97 C 106.64 138.63 132.10 137.56 122.80 147.81 C 110.57 150.09 97.58 141.52 86.90 137.07 C 79.40 135.19 94.07 145.06 85.33 145.43 C 77.87 150.34 72.47 136.14 66.37 141.38 C 63.42 144.78 61.96 149.80 57.92 152.06 C 50.69 150.73 61.90 138.34 54.53 137.35 C 36.33 137.84 18.14 137.54 0.00 135.89 L 0.00 105.12 C 15.04 104.45 30.51 103.38 44.36 109.40 C 61.48 100.91 82.92 114.29 98.75 101.63 Z" />
</g>
<g id="#cad4f5ff">
<path fill="#cad4f5" opacity="1.00" d=" M 782.02 116.95 C 789.00 109.17 802.36 110.81 805.79 121.19 C 817.73 124.25 830.93 122.36 843.35 122.57 C 849.38 121.99 848.39 133.79 855.31 127.30 C 861.82 119.74 869.14 128.23 864.08 135.82 C 873.06 139.68 873.40 120.02 883.40 125.73 C 887.49 127.18 891.86 126.42 895.91 125.12 C 898.82 132.76 891.34 139.79 891.41 147.64 C 903.75 147.45 904.96 125.95 918.48 126.44 C 932.25 124.95 946.11 121.96 960.00 123.74 L 960.00 159.27 C 954.52 153.02 945.28 151.44 942.98 160.47 C 942.56 148.21 930.41 153.70 922.18 152.35 C 866.31 153.58 810.29 151.95 754.52 155.58 C 734.18 148.41 743.77 182.55 725.97 181.01 C 721.33 176.28 738.73 154.97 722.95 159.90 C 719.58 160.44 719.53 155.88 717.53 154.21 C 682.17 152.94 646.62 153.71 611.46 157.49 C 613.37 165.18 610.75 172.61 603.31 176.23 C 601.18 185.19 589.73 184.47 582.91 188.78 C 578.17 184.41 595.51 175.96 587.08 167.85 C 592.92 177.99 616.80 169.56 606.33 158.67 C 600.95 151.09 599.71 169.92 596.36 161.63 C 595.37 152.18 587.79 141.85 593.80 132.85 C 600.59 128.73 603.26 118.20 613.41 123.56 C 622.77 128.49 633.37 132.19 644.08 130.14 C 649.13 124.54 657.81 129.39 663.37 124.39 C 672.13 120.30 681.14 129.26 689.98 129.83 C 701.63 127.04 714.52 122.39 725.77 128.35 C 726.40 133.66 715.99 134.75 717.97 141.09 C 722.17 141.17 724.71 137.20 728.14 135.39 C 734.11 139.61 742.56 139.80 748.93 137.79 C 747.79 131.04 731.09 137.85 734.21 130.20 C 742.88 128.63 754.77 118.31 762.00 126.64 C 766.51 125.70 786.35 125.14 777.10 117.97 C 772.89 120.90 764.14 122.64 760.93 118.99 C 765.36 110.35 775.52 112.51 782.02 116.95 Z" />
</g>
<g id="#aab2daff">
<path fill="#aab2da" opacity="1.00" d=" M 457.28 124.34 C 463.95 125.80 473.81 132.28 465.91 139.95 C 461.21 149.91 456.42 168.47 441.67 160.33 C 442.28 153.83 446.91 147.00 449.14 140.36 C 451.96 135.12 453.08 128.64 457.28 124.34 Z" />
</g>
<g id="#a2aad4ff">
<path fill="#a2aad4" opacity="1.00" d=" M 398.16 125.10 C 411.63 125.31 421.26 135.94 432.87 141.24 C 429.94 146.21 440.95 155.61 429.46 152.61 C 420.66 147.78 412.22 142.21 403.23 137.67 C 398.37 135.22 395.20 130.77 398.16 125.10 Z" />
</g>
<g id="#d2dbfaff">
<path fill="#d2dbfa" opacity="1.00" d=" M 122.80 147.81 C 132.10 137.56 106.64 138.63 108.93 132.97 C 173.79 143.58 239.71 147.25 305.59 148.29 C 313.53 149.58 301.28 166.22 309.95 159.99 C 312.81 141.20 332.69 152.02 345.01 151.04 C 348.53 152.78 359.97 148.66 359.51 155.27 C 350.98 158.07 342.85 161.94 334.39 164.90 C 327.25 155.27 312.30 164.33 302.42 161.76 C 236.63 157.64 170.71 164.07 104.94 158.14 C 99.66 158.99 94.09 161.42 89.37 157.62 C 59.63 157.26 29.90 155.15 0.00 156.00 L 0.00 135.89 C 18.14 137.54 36.33 137.84 54.53 137.35 C 61.90 138.34 50.69 150.73 57.92 152.06 C 61.96 149.80 63.42 144.78 66.37 141.38 C 72.47 136.14 77.87 150.34 85.33 145.43 C 94.07 145.06 79.40 135.19 86.90 137.07 C 97.58 141.52 110.57 150.09 122.80 147.81 Z" />
</g>
<g id="#dee4ffff">
<path fill="#dee4ff" opacity="1.00" d=" M 754.52 155.58 C 810.29 151.95 866.31 153.58 922.18 152.35 C 930.41 153.70 942.56 148.21 942.98 160.47 C 945.28 151.44 954.52 153.02 960.00 159.27 L 960.00 540.00 L 837.56 540.00 C 834.45 538.37 831.25 536.89 827.87 535.96 C 822.19 525.89 836.30 525.76 833.94 534.92 C 830.98 528.35 843.67 523.92 841.10 534.04 C 843.65 537.75 841.99 523.46 848.32 528.59 C 846.37 534.18 855.38 540.12 858.23 534.09 C 848.51 540.00 852.47 522.37 842.68 527.44 C 835.96 529.57 818.82 521.79 822.62 534.42 C 819.50 533.44 816.29 532.17 815.05 528.87 C 819.96 537.23 803.29 539.84 807.97 530.02 C 806.81 522.01 808.38 540.51 804.41 535.34 C 807.26 529.37 802.99 525.89 797.77 525.94 C 804.29 492.40 815.07 459.49 822.67 426.06 C 812.37 421.80 801.30 418.67 790.30 417.11 C 782.53 448.90 773.39 480.35 766.05 512.23 C 763.04 522.87 751.98 515.22 754.78 506.22 C 725.80 491.31 696.21 477.49 667.00 463.00 C 657.19 458.37 647.80 451.43 636.30 452.73 C 634.60 447.64 634.12 442.26 632.59 437.14 C 618.76 436.88 605.14 439.56 591.37 440.20 C 592.39 433.14 592.56 419.56 602.78 421.75 C 608.26 413.18 613.08 404.18 618.83 395.79 C 623.11 392.10 635.31 396.15 631.90 386.30 C 624.64 381.57 616.53 386.73 609.01 387.96 C 610.01 368.57 643.94 381.39 646.81 362.30 C 643.64 360.86 640.34 359.68 636.95 358.93 C 626.29 361.80 616.24 366.55 605.57 369.33 C 605.15 367.33 604.28 365.45 602.37 364.51 C 600.02 362.23 596.86 362.08 593.84 362.89 C 594.50 355.60 593.18 346.26 583.58 347.35 C 575.57 341.89 575.80 359.17 569.35 353.62 C 567.09 348.04 568.54 336.47 576.99 338.95 C 585.45 337.61 582.71 320.28 573.34 323.61 C 567.84 317.56 565.17 322.57 562.58 328.60 C 550.03 336.85 533.71 335.83 519.66 331.27 C 498.94 329.22 478.01 329.13 457.18 329.70 C 449.44 329.26 454.48 316.45 444.61 319.27 C 438.15 317.72 438.60 328.18 433.05 330.01 C 419.92 333.18 435.02 357.78 417.99 356.93 C 412.69 354.77 406.83 371.53 398.57 366.44 C 389.36 360.99 394.99 375.81 397.86 379.32 C 402.24 384.20 402.40 393.92 393.36 391.80 C 386.22 385.80 381.43 377.63 374.78 371.18 C 369.69 372.24 372.60 378.62 367.34 380.36 C 367.88 384.64 375.48 377.00 377.05 382.76 C 372.04 389.80 366.44 377.01 360.80 382.80 C 357.68 386.34 355.39 383.52 353.03 380.86 C 349.06 381.63 348.01 385.35 350.38 388.43 C 349.13 392.62 331.35 395.89 337.93 401.06 C 343.10 398.40 348.05 395.26 352.77 391.86 C 361.45 398.36 344.35 399.00 344.89 406.05 C 352.26 399.52 358.22 417.46 349.12 419.16 C 342.65 427.95 341.51 411.51 334.95 412.95 C 336.41 419.65 344.30 422.83 339.58 429.22 C 336.54 432.00 330.14 440.13 327.64 434.40 C 324.02 423.56 321.76 411.88 315.68 402.08 C 305.75 397.72 313.18 414.16 303.95 410.10 C 295.14 413.08 294.89 405.53 292.59 400.40 C 287.16 395.49 278.27 403.64 283.66 409.32 C 286.71 424.20 291.68 438.88 296.71 453.33 C 303.83 474.64 272.06 477.20 258.14 474.76 C 257.29 472.79 256.23 470.93 255.00 469.18 C 244.00 447.95 233.07 426.59 221.21 405.86 C 216.77 404.75 213.11 403.11 215.48 397.36 C 209.07 380.91 178.74 396.32 191.90 410.89 C 128.47 423.62 64.07 433.98 0.00 444.15 L 0.00 156.00 C 29.90 155.15 59.63 157.26 89.37 157.62 C 94.09 161.42 99.66 158.99 104.94 158.14 C 170.71 164.07 236.63 157.64 302.42 161.76 C 312.30 164.33 327.25 155.27 334.39 164.90 C 320.76 167.41 335.72 178.52 342.80 175.77 C 345.89 175.28 350.11 172.17 352.33 175.84 C 350.92 177.17 347.70 177.37 347.97 179.80 C 354.44 185.19 358.05 195.31 366.99 197.05 C 373.38 191.79 349.99 183.38 360.88 180.80 C 366.65 178.84 355.26 176.79 357.12 172.22 C 366.20 169.08 375.57 166.67 384.85 164.13 C 387.02 169.31 382.56 180.54 391.96 177.99 C 392.39 174.17 389.36 169.19 392.09 166.21 C 398.54 167.93 405.54 176.74 411.11 169.15 C 413.58 167.13 410.96 164.37 409.42 162.74 C 407.88 160.75 406.25 158.84 404.78 156.80 C 412.34 152.22 422.26 156.03 430.60 155.30 C 438.36 159.86 440.94 169.13 446.39 175.74 C 451.98 177.52 450.80 165.31 456.62 167.36 C 465.84 169.99 474.97 172.94 484.10 175.90 C 485.93 176.99 489.90 174.28 487.24 172.84 C 478.84 169.01 469.61 167.20 460.96 164.08 C 456.90 162.35 459.71 157.05 462.28 155.18 C 481.05 154.89 499.88 154.67 518.66 155.38 C 517.23 165.87 510.22 174.68 508.95 185.19 C 518.16 181.52 518.19 162.54 528.42 166.25 C 533.07 158.40 543.53 162.21 549.21 155.26 C 560.33 156.70 575.12 150.41 584.15 159.03 C 585.15 161.96 586.13 164.90 587.08 167.85 C 595.51 175.96 578.17 184.41 582.91 188.78 C 589.73 184.47 601.18 185.19 603.31 176.23 C 610.75 172.61 613.37 165.18 611.46 157.49 C 646.62 153.71 682.17 152.94 717.53 154.21 C 719.53 155.88 719.58 160.44 722.95 159.90 C 738.73 154.97 721.33 176.28 725.97 181.01 C 743.77 182.55 734.18 148.41 754.52 155.58 M 857.90 526.90 C 862.14 536.88 860.71 524.71 869.93 527.93 C 866.07 534.35 869.48 534.56 871.57 535.43 C 865.82 526.46 880.87 525.20 877.33 534.66 C 879.87 538.43 878.02 530.17 881.10 535.00 C 887.56 532.27 872.70 531.41 880.92 530.85 C 887.90 527.89 869.93 530.26 883.92 527.84 C 876.99 526.76 866.12 527.13 857.90 526.90 M 810.06 529.02 C 810.40 530.87 808.52 536.00 811.77 534.84 C 813.90 533.16 814.00 527.34 810.06 529.02 M 853.20 530.17 C 848.88 533.38 857.05 533.23 853.20 530.17 Z" />
</g>
<g id="#b7bfe8ff">
<path fill="#b7bfe8" opacity="1.00" d=" M 373.78 158.30 C 379.56 158.62 385.04 153.93 390.91 153.08 C 397.19 156.06 402.76 160.51 409.42 162.74 C 410.96 164.37 413.58 167.13 411.11 169.15 C 405.54 176.74 398.54 167.93 392.09 166.21 C 389.36 169.19 392.39 174.17 391.96 177.99 C 382.56 180.54 387.02 169.31 384.85 164.13 C 375.57 166.67 366.20 169.08 357.12 172.22 C 355.26 176.79 366.65 178.84 360.88 180.80 C 349.99 183.38 373.38 191.79 366.99 197.05 C 358.05 195.31 354.44 185.19 347.97 179.80 C 347.70 177.37 350.92 177.17 352.33 175.84 C 350.11 172.17 345.89 175.28 342.80 175.77 C 335.72 178.52 320.76 167.41 334.39 164.90 C 342.85 161.94 350.98 158.07 359.51 155.27 C 364.26 154.23 372.74 151.40 373.78 158.30 Z" />
</g>
<g id="#d2d8f4ff">
<path fill="#d2d8f4" opacity="1.00" d=" M 433.05 330.01 C 438.60 328.18 438.15 317.72 444.61 319.27 C 454.48 316.45 449.44 329.26 457.18 329.70 C 478.01 329.13 498.94 329.22 519.66 331.27 C 533.71 335.83 550.03 336.85 562.58 328.60 C 565.17 322.57 567.84 317.56 573.34 323.61 C 582.71 320.28 585.45 337.61 576.99 338.95 C 568.54 336.47 567.09 348.04 569.35 353.62 C 575.80 359.17 575.57 341.89 583.58 347.35 C 593.18 346.26 594.50 355.60 593.84 362.89 C 590.47 364.33 589.32 367.94 589.49 371.35 C 587.34 382.27 566.65 375.89 568.11 388.64 C 572.42 394.81 585.40 384.32 582.43 393.37 C 578.04 398.43 564.99 394.11 566.11 403.64 C 575.93 405.34 566.29 417.94 566.00 423.90 C 560.40 422.18 555.32 434.51 563.02 433.90 C 569.36 432.33 567.61 439.21 571.08 440.78 C 574.81 441.38 570.98 442.52 569.37 442.80 C 567.67 440.02 564.14 440.19 561.31 439.74 C 553.40 438.16 545.32 437.31 537.54 435.23 C 540.37 435.28 546.03 435.37 548.85 435.42 C 553.86 437.91 555.82 435.10 555.77 430.91 C 549.28 422.83 558.76 412.18 559.97 403.18 C 549.31 400.47 537.97 402.75 527.08 402.03 C 531.38 387.90 554.79 400.27 564.12 392.06 C 568.04 386.43 558.32 385.57 555.01 386.07 C 547.21 386.46 539.50 388.13 531.67 387.87 C 532.10 381.96 525.55 378.20 520.69 381.69 C 520.06 381.73 518.81 381.81 518.18 381.85 C 507.92 376.95 532.03 377.39 526.89 367.97 C 524.48 364.34 532.99 354.11 524.39 356.26 C 521.11 366.76 510.56 365.47 501.92 363.84 C 502.35 360.62 506.40 354.28 501.18 353.97 C 498.44 356.28 497.36 362.34 492.61 360.46 C 487.88 358.56 488.44 364.96 486.83 367.81 C 467.68 371.22 446.90 366.36 429.11 365.03 C 428.60 355.92 420.27 362.18 424.89 369.15 C 420.71 366.96 420.57 360.75 417.99 356.93 C 435.02 357.78 419.92 333.18 433.05 330.01 Z" />
</g>
<g id="#9299c5ff">
<path fill="#9299c5" opacity="1.00" d=" M 492.61 360.46 C 497.36 362.34 498.44 356.28 501.18 353.97 C 506.40 354.28 502.35 360.62 501.92 363.84 C 498.83 370.19 502.82 376.73 502.90 383.30 C 504.34 386.14 499.02 390.38 500.32 385.54 C 503.40 376.87 493.92 379.76 494.69 385.79 C 490.54 386.34 484.74 387.40 488.71 392.12 C 476.75 400.54 462.45 397.15 449.07 398.12 C 433.30 403.38 416.01 400.18 400.44 398.45 C 395.40 395.22 386.43 391.86 381.14 395.06 C 378.15 406.61 365.02 381.91 366.71 396.18 C 360.66 394.92 358.01 382.80 352.77 391.86 C 348.05 395.26 343.10 398.40 337.93 401.06 C 331.35 395.89 349.13 392.62 350.38 388.43 C 348.01 385.35 349.06 381.63 353.03 380.86 C 355.39 383.52 357.68 386.34 360.80 382.80 C 366.44 377.01 372.04 389.80 377.05 382.76 C 375.48 377.00 367.88 384.64 367.34 380.36 C 372.60 378.62 369.69 372.24 374.78 371.18 C 381.43 377.63 386.22 385.80 393.36 391.80 C 402.40 393.92 402.24 384.20 397.86 379.32 C 403.21 370.79 404.96 376.46 407.55 382.25 C 408.03 372.92 414.90 386.36 422.17 386.72 C 439.66 385.47 457.09 383.28 474.54 381.52 C 482.66 382.27 484.95 373.82 486.83 367.81 C 488.44 364.96 487.88 358.56 492.61 360.46 Z" />
</g>
<g id="#b2b9ddff">
<path fill="#b2b9dd" opacity="1.00" d=" M 398.57 366.44 C 406.83 371.53 412.69 354.77 417.99 356.93 C 420.57 360.75 420.71 366.96 424.89 369.15 C 420.27 362.18 428.60 355.92 429.11 365.03 C 446.90 366.36 467.68 371.22 486.83 367.81 C 484.95 373.82 482.66 382.27 474.54 381.52 C 457.09 383.28 439.66 385.47 422.17 386.72 C 414.90 386.36 408.03 372.92 407.55 382.25 C 404.96 376.46 403.21 370.79 397.86 379.32 C 394.99 375.81 389.36 360.99 398.57 366.44 Z" />
</g>
<g id="#bac0dfff">
<path fill="#bac0df" opacity="1.00" d=" M 524.39 356.26 C 532.99 354.11 524.48 364.34 526.89 367.97 C 532.03 377.39 507.92 376.95 518.18 381.85 C 515.48 382.35 510.55 380.79 512.43 386.52 C 508.84 400.11 505.73 413.89 501.22 427.21 C 501.33 424.47 501.49 421.78 502.19 419.15 C 505.25 408.03 508.89 396.95 509.69 385.38 C 508.42 382.43 505.60 381.90 502.90 383.30 C 502.82 376.73 498.83 370.19 501.92 363.84 C 510.56 365.47 521.11 366.76 524.39 356.26 Z" />
</g>
<g id="#5456abff">
<path fill="#5456ab" opacity="1.00" d=" M 605.57 369.33 C 616.24 366.55 626.29 361.80 636.95 358.93 C 635.06 362.54 634.70 368.19 629.67 368.70 C 616.74 371.20 604.95 378.24 591.93 380.05 C 591.22 372.14 600.36 371.97 605.57 369.33 Z" />
</g>
<g id="#2f3387ff">
<path fill="#2f3387" opacity="1.00" d=" M 636.95 358.93 C 640.34 359.68 643.64 360.86 646.81 362.30 C 643.94 381.39 610.01 368.57 609.01 387.96 C 616.53 386.73 624.64 381.57 631.90 386.30 C 635.31 396.15 623.11 392.10 618.83 395.79 C 613.08 404.18 608.26 413.18 602.78 421.75 C 592.56 419.56 592.39 433.14 591.37 440.20 C 605.14 439.56 618.76 436.88 632.59 437.14 C 634.12 442.26 634.60 447.64 636.30 452.73 C 647.80 451.43 657.19 458.37 667.00 463.00 C 696.21 477.49 725.80 491.31 754.78 506.22 C 751.98 515.22 763.04 522.87 766.05 512.23 C 777.81 504.43 775.41 482.06 792.49 481.12 C 796.00 495.00 792.80 509.60 794.18 523.73 C 794.96 524.97 796.32 525.72 797.77 525.94 C 802.99 525.89 807.26 529.37 804.41 535.34 C 808.38 540.51 806.81 522.01 807.97 530.02 C 803.29 539.84 819.96 537.23 815.05 528.87 C 816.29 532.17 819.50 533.44 822.62 534.42 C 823.86 536.05 826.07 535.65 827.87 535.96 C 831.25 536.89 834.45 538.37 837.56 540.00 L 799.96 540.00 C 800.22 538.77 802.35 537.05 801.16 536.05 C 796.91 534.95 800.18 527.62 795.97 528.02 C 792.72 528.59 798.03 539.99 791.62 536.40 C 778.66 530.18 764.88 526.26 751.36 521.64 C 743.78 520.03 755.33 511.69 745.02 511.98 C 730.42 513.40 719.63 503.15 706.99 498.06 C 677.41 493.67 651.64 476.06 625.27 462.59 C 622.00 459.52 615.26 457.55 615.90 452.03 C 619.77 453.27 627.08 456.02 628.09 450.09 C 622.00 441.63 608.51 441.54 599.50 444.59 C 585.44 449.22 568.68 443.80 555.92 449.11 C 553.14 449.31 548.15 448.94 551.29 445.30 C 557.11 443.46 563.41 444.11 569.37 442.80 C 570.98 442.52 574.81 441.38 571.08 440.78 C 577.70 440.22 575.46 419.43 579.83 426.57 C 584.05 421.42 587.31 415.44 587.75 408.64 C 585.42 412.12 584.08 416.33 580.97 419.25 C 583.42 402.40 589.46 386.20 592.40 369.45 C 594.89 366.48 598.97 365.91 602.37 364.51 C 604.28 365.45 605.15 367.33 605.57 369.33 C 600.36 371.97 591.22 372.14 591.93 380.05 C 604.95 378.24 616.74 371.20 629.67 368.70 C 634.70 368.19 635.06 362.54 636.95 358.93 M 608.36 397.34 C 602.79 398.08 601.24 405.27 600.97 410.08 C 604.42 408.42 611.88 397.69 608.36 397.34 Z" />
</g>
<g id="#545389ff">
<path fill="#545389" opacity="1.00" d=" M 593.84 362.89 C 596.86 362.08 600.02 362.23 602.37 364.51 C 598.97 365.91 594.89 366.48 592.40 369.45 C 589.46 386.20 583.42 402.40 580.97 419.25 C 584.08 416.33 585.42 412.12 587.75 408.64 C 587.31 415.44 584.05 421.42 579.83 426.57 C 575.46 419.43 577.70 440.22 571.08 440.78 C 567.61 439.21 569.36 432.33 563.02 433.90 C 555.32 434.51 560.40 422.18 566.00 423.90 C 566.29 417.94 575.93 405.34 566.11 403.64 C 564.99 394.11 578.04 398.43 582.43 393.37 C 585.40 384.32 572.42 394.81 568.11 388.64 C 566.65 375.89 587.34 382.27 589.49 371.35 C 589.32 367.94 590.47 364.33 593.84 362.89 M 577.18 404.14 C 576.58 409.88 571.71 420.10 573.00 424.03 C 573.12 420.24 584.03 403.93 577.18 404.14 Z" />
</g>
<g id="#585b89ff">
<path fill="#585b89" opacity="1.00" d=" M 494.69 385.79 C 493.92 379.76 503.40 376.87 500.32 385.54 C 499.02 390.38 504.34 386.14 502.90 383.30 C 505.60 381.90 508.42 382.43 509.69 385.38 C 508.89 396.95 505.25 408.03 502.19 419.15 C 498.76 421.56 491.29 418.47 490.32 422.32 C 494.41 421.66 498.06 423.88 500.43 427.11 C 492.82 434.00 483.01 423.86 475.70 430.68 C 442.58 432.74 408.04 426.73 374.82 432.88 C 369.94 436.66 359.86 432.94 363.91 425.89 C 355.68 429.04 348.41 434.37 339.85 436.79 C 334.80 440.26 326.79 435.29 324.01 442.09 C 319.33 444.70 314.19 446.59 310.11 450.17 C 311.04 455.24 313.09 460.12 315.47 464.68 C 318.91 465.90 321.69 462.08 325.08 461.79 C 321.77 466.30 318.45 471.16 313.79 474.39 C 299.46 474.15 285.33 481.06 271.14 477.08 C 265.83 477.33 258.07 484.84 253.73 479.03 C 255.09 477.50 256.57 476.07 258.14 474.76 C 272.06 477.20 303.83 474.64 296.71 453.33 C 299.68 450.37 301.65 445.46 306.65 445.78 C 305.30 437.31 300.79 429.56 300.17 421.01 C 302.31 426.15 308.96 423.89 313.14 422.92 C 323.79 417.67 319.99 432.33 327.64 434.40 C 330.14 440.13 336.54 432.00 339.58 429.22 C 348.53 422.75 358.71 415.03 370.49 416.21 C 375.11 413.79 380.68 410.54 380.26 417.71 C 398.78 419.12 417.31 426.71 436.01 421.91 C 452.08 418.45 468.53 416.67 484.75 414.79 C 491.65 407.01 491.30 395.36 494.69 385.79 Z" />
</g>
<g id="#5e5b7eff">
<path fill="#5e5b7e" opacity="1.00" d=" M 520.69 381.69 C 525.55 378.20 532.10 381.96 531.67 387.87 C 539.50 388.13 547.21 386.46 555.01 386.07 C 558.32 385.57 568.04 386.43 564.12 392.06 C 554.79 400.27 531.38 387.90 527.08 402.03 C 537.97 402.75 549.31 400.47 559.97 403.18 C 558.76 412.18 549.28 422.83 555.77 430.91 C 555.82 435.10 553.86 437.91 548.85 435.42 C 549.35 435.08 550.35 434.41 550.85 434.07 C 537.48 432.05 523.89 431.72 510.45 430.56 C 507.55 434.21 504.94 434.38 503.78 429.51 C 512.74 415.04 513.50 397.01 520.69 381.69 M 540.26 408.18 C 536.51 412.84 534.91 421.63 535.99 426.03 C 540.83 424.43 545.55 407.92 540.26 408.18 M 548.35 408.16 C 547.54 414.01 539.69 427.14 547.91 426.95 C 547.05 421.67 558.33 405.88 548.35 408.16 M 530.19 409.15 C 531.46 413.16 521.92 425.90 528.82 425.93 C 530.52 421.10 537.81 407.71 530.19 409.15 Z" />
</g>
<g id="#8187adff">
<path fill="#8187ad" opacity="1.00" d=" M 512.43 386.52 C 510.55 380.79 515.48 382.35 518.18 381.85 C 518.81 381.81 520.06 381.73 520.69 381.69 C 513.50 397.01 512.74 415.04 503.78 429.51 C 502.55 429.05 500.51 429.08 501.22 427.21 C 505.73 413.89 508.84 400.11 512.43 386.52 Z" />
</g>
<g id="#7c81abff">
<path fill="#7c81ab" opacity="1.00" d=" M 488.71 392.12 C 484.74 387.40 490.54 386.34 494.69 385.79 C 491.30 395.36 491.65 407.01 484.75 414.79 C 468.53 416.67 452.08 418.45 436.01 421.91 C 417.31 426.71 398.78 419.12 380.26 417.71 C 380.68 410.54 375.11 413.79 370.49 416.21 C 358.71 415.03 348.53 422.75 339.58 429.22 C 344.30 422.83 336.41 419.65 334.95 412.95 C 341.51 411.51 342.65 427.95 349.12 419.16 C 358.22 417.46 352.26 399.52 344.89 406.05 C 344.35 399.00 361.45 398.36 352.77 391.86 C 358.01 382.80 360.66 394.92 366.71 396.18 C 365.02 381.91 378.15 406.61 381.14 395.06 C 386.43 391.86 395.40 395.22 400.44 398.45 C 416.01 400.18 433.30 403.38 449.07 398.12 C 462.45 397.15 476.75 400.54 488.71 392.12 M 354.31 400.25 C 349.83 403.30 355.79 409.10 357.13 413.01 C 361.70 411.00 357.88 400.76 354.31 400.25 Z" />
</g>
<g id="#3037a1ff">
<path fill="#3037a1" opacity="1.00" d=" M 191.90 410.89 C 178.74 396.32 209.07 380.91 215.48 397.36 C 213.11 403.11 216.77 404.75 221.21 405.86 C 233.07 426.59 244.00 447.95 255.00 469.18 C 237.79 455.99 230.34 432.59 218.51 414.58 C 215.66 407.68 210.02 407.96 213.00 415.86 C 201.68 413.39 191.79 420.47 182.24 425.25 C 181.30 429.07 189.65 426.82 192.26 428.33 C 128.28 444.07 63.84 457.91 0.00 474.24 L 0.00 444.15 C 64.07 433.98 128.47 423.62 191.90 410.89 Z" />
</g>
<g id="#cfd4f0ff">
<path fill="#cfd4f0" opacity="1.00" d=" M 608.36 397.34 C 611.88 397.69 604.42 408.42 600.97 410.08 C 601.24 405.27 602.79 398.08 608.36 397.34 Z" />
</g>
<g id="#6668b5ff">
<path fill="#6668b5" opacity="1.00" d=" M 283.66 409.32 C 278.27 403.64 287.16 395.49 292.59 400.40 C 294.89 405.53 295.14 413.08 303.95 410.10 C 313.18 414.16 305.75 397.72 315.68 402.08 C 321.76 411.88 324.02 423.56 327.64 434.40 C 319.99 432.33 323.79 417.67 313.14 422.92 C 314.28 415.23 297.97 413.07 300.17 421.01 C 300.79 429.56 305.30 437.31 306.65 445.78 C 301.65 445.46 299.68 450.37 296.71 453.33 C 291.68 438.88 286.71 424.20 283.66 409.32 Z" />
</g>
<g id="#d6dcf5ff">
<path fill="#d6dcf5" opacity="1.00" d=" M 354.31 400.25 C 357.88 400.76 361.70 411.00 357.13 413.01 C 355.79 409.10 349.83 403.30 354.31 400.25 Z" />
</g>
<g id="#c7cce6ff">
<path fill="#c7cce6" opacity="1.00" d=" M 577.18 404.14 C 584.03 403.93 573.12 420.24 573.00 424.03 C 571.71 420.10 576.58 409.88 577.18 404.14 Z" />
</g>
<g id="#c6cce4ff">
<path fill="#c6cce4" opacity="1.00" d=" M 540.26 408.18 C 545.55 407.92 540.83 424.43 535.99 426.03 C 534.91 421.63 536.51 412.84 540.26 408.18 Z" />
</g>
<g id="#d0d5ecff">
<path fill="#d0d5ec" opacity="1.00" d=" M 548.35 408.16 C 558.33 405.88 547.05 421.67 547.91 426.95 C 539.69 427.14 547.54 414.01 548.35 408.16 Z" />
</g>
<g id="#2f338cff">
<path fill="#2f338c" opacity="1.00" d=" M 213.00 415.86 C 210.02 407.96 215.66 407.68 218.51 414.58 C 230.34 432.59 237.79 455.99 255.00 469.18 C 256.23 470.93 257.29 472.79 258.14 474.76 C 256.57 476.07 255.09 477.50 253.73 479.03 C 246.10 467.78 237.96 456.18 229.66 445.25 C 212.53 446.51 197.21 456.20 181.58 462.49 C 175.19 464.76 181.41 472.28 177.20 476.18 C 174.91 474.54 172.79 472.49 169.98 471.76 C 169.66 485.90 181.37 497.29 181.85 511.27 C 174.62 498.80 168.64 485.68 161.78 473.03 C 157.31 472.98 153.31 475.55 149.28 477.22 C 158.75 493.03 164.69 511.00 175.07 526.18 C 179.05 524.53 182.38 521.68 186.05 519.48 C 196.05 514.07 204.55 506.17 215.19 501.87 C 198.30 516.93 176.40 525.36 159.27 540.00 L 154.48 540.00 C 156.67 538.37 158.96 536.88 160.96 535.02 C 152.10 517.73 143.99 499.85 133.84 483.30 C 128.46 484.73 123.31 486.96 118.25 489.23 C 125.99 506.46 135.76 522.79 143.46 540.00 L 121.23 540.00 C 114.60 525.19 107.70 510.43 99.88 496.23 C 92.57 498.73 85.40 501.65 78.19 504.44 C 81.86 516.64 90.75 527.45 94.45 540.00 L 68.50 540.00 C 64.36 531.22 60.17 521.80 54.85 513.95 C 44.49 516.95 34.43 521.38 24.37 525.35 C 24.90 530.26 29.04 534.91 30.32 540.00 L 0.00 540.00 L 0.00 509.12 C 27.01 501.96 52.89 491.01 80.32 485.29 C 113.08 475.34 145.55 463.99 177.97 452.99 C 184.76 450.24 176.83 451.54 173.93 451.54 C 181.27 446.41 190.06 443.43 199.01 442.99 C 213.14 446.19 201.15 421.48 192.26 428.33 C 189.65 426.82 181.30 429.07 182.24 425.25 C 191.79 420.47 201.68 413.39 213.00 415.86 Z" />
</g>
<g id="#c9cee5ff">
<path fill="#c9cee5" opacity="1.00" d=" M 530.19 409.15 C 537.81 407.71 530.52 421.10 528.82 425.93 C 521.92 425.90 531.46 413.16 530.19 409.15 Z" />
</g>
<g id="#dee4fbff">
<path fill="#dee4fb" opacity="1.00" d=" M 300.17 421.01 C 297.97 413.07 314.28 415.23 313.14 422.92 C 308.96 423.89 302.31 426.15 300.17 421.01 Z" />
</g>
<g id="#272d9eff">
<path fill="#272d9e" opacity="1.00" d=" M 790.30 417.11 C 801.30 418.67 812.37 421.80 822.67 426.06 C 815.07 459.49 804.29 492.40 797.77 525.94 C 796.32 525.72 794.96 524.97 794.18 523.73 C 792.80 509.60 796.00 495.00 792.49 481.12 C 775.41 482.06 777.81 504.43 766.05 512.23 C 773.39 480.35 782.53 448.90 790.30 417.11 Z" />
</g>
<g id="#3e4264ff">
<path fill="#3e4264" opacity="1.00" d=" M 490.32 422.32 C 491.29 418.47 498.76 421.56 502.19 419.15 C 501.49 421.78 501.33 424.47 501.22 427.21 C 500.51 429.08 502.55 429.05 503.78 429.51 C 504.94 434.38 507.55 434.21 510.45 430.56 C 523.89 431.72 537.48 432.05 550.85 434.07 C 550.35 434.41 549.35 435.08 548.85 435.42 C 546.03 435.37 540.37 435.28 537.54 435.23 C 545.32 437.31 553.40 438.16 561.31 439.74 C 551.25 440.35 542.92 451.93 532.59 446.47 C 526.33 445.09 518.08 443.03 513.40 448.46 C 489.92 452.26 466.95 458.96 443.31 461.97 C 441.02 453.18 429.56 456.43 423.01 456.06 C 401.96 459.14 379.94 456.70 359.50 463.37 C 354.73 463.99 349.95 463.14 345.30 462.12 C 345.62 459.29 341.16 454.39 348.56 456.58 C 355.37 456.77 361.42 452.18 368.29 453.84 C 363.85 450.18 357.39 453.75 352.61 451.23 C 354.18 449.16 365.99 454.13 362.43 448.56 C 358.30 448.01 354.04 448.14 350.05 446.76 C 349.17 440.94 359.36 436.92 356.82 432.04 C 348.69 436.51 339.89 439.13 331.17 442.19 C 332.17 446.84 332.28 451.63 324.84 449.05 C 329.75 447.48 330.27 438.70 324.01 442.09 C 326.79 435.29 334.80 440.26 339.85 436.79 C 348.41 434.37 355.68 429.04 363.91 425.89 C 359.86 432.94 369.94 436.66 374.82 432.88 C 408.04 426.73 442.58 432.74 475.70 430.68 C 483.01 423.86 492.82 434.00 500.43 427.11 C 498.06 423.88 494.41 421.66 490.32 422.32 Z" />
</g>
<g id="#dde4fdff">
<path fill="#dde4fd" opacity="1.00" d=" M 192.26 428.33 C 201.15 421.48 213.14 446.19 199.01 442.99 C 190.06 443.43 181.27 446.41 173.93 451.54 C 117.81 474.99 57.66 487.86 0.00 507.25 L 0.00 474.24 C 63.84 457.91 128.28 444.07 192.26 428.33 Z" />
</g>
<g id="#2d3165ff">
<path fill="#2d3165" opacity="1.00" d=" M 331.17 442.19 C 339.89 439.13 348.69 436.51 356.82 432.04 C 359.36 436.92 349.17 440.94 350.05 446.76 C 354.04 448.14 358.30 448.01 362.43 448.56 C 365.99 454.13 354.18 449.16 352.61 451.23 C 357.39 453.75 363.85 450.18 368.29 453.84 C 361.42 452.18 355.37 456.77 348.56 456.58 C 341.16 454.39 345.62 459.29 345.30 462.12 C 339.93 462.53 334.54 462.61 329.20 463.24 C 329.29 470.92 321.35 474.16 315.84 477.88 C 309.99 484.30 303.11 489.72 297.36 496.25 C 299.36 479.89 282.55 497.32 279.39 502.40 C 268.40 514.86 257.69 527.56 246.69 540.00 L 225.68 540.00 C 238.74 525.29 253.52 512.17 266.07 497.01 C 243.42 492.98 229.26 512.33 211.99 522.97 C 204.55 528.73 196.48 533.68 189.48 540.00 L 159.27 540.00 C 176.40 525.36 198.30 516.93 215.19 501.87 C 204.55 506.17 196.05 514.07 186.05 519.48 C 184.53 516.79 183.14 514.05 181.85 511.27 C 181.37 497.29 169.66 485.90 169.98 471.76 C 172.79 472.49 174.91 474.54 177.20 476.18 C 181.41 472.28 175.19 464.76 181.58 462.49 C 197.21 456.20 212.53 446.51 229.66 445.25 C 237.96 456.18 246.10 467.78 253.73 479.03 C 258.07 484.84 265.83 477.33 271.14 477.08 C 285.33 481.06 299.46 474.15 313.79 474.39 C 318.45 471.16 321.77 466.30 325.08 461.79 C 321.69 462.08 318.91 465.90 315.47 464.68 C 313.09 460.12 311.04 455.24 310.11 450.17 C 314.19 446.59 319.33 444.70 324.01 442.09 C 330.27 438.70 329.75 447.48 324.84 449.05 C 332.28 451.63 332.17 446.84 331.17 442.19 M 213.96 477.89 C 215.42 484.70 217.30 491.59 220.07 498.01 C 228.57 494.74 216.12 482.97 213.96 477.89 Z" />
</g>
<g id="#2d304dff">
<path fill="#2d304d" opacity="1.00" d=" M 532.59 446.47 C 542.92 451.93 551.25 440.35 561.31 439.74 C 564.14 440.19 567.67 440.02 569.37 442.80 C 563.41 444.11 557.11 443.46 551.29 445.30 C 548.15 448.94 553.14 449.31 555.92 449.11 C 558.10 451.71 571.65 453.51 578.01 453.96 C 586.30 451.65 591.36 461.39 599.37 459.58 C 598.05 454.56 601.14 450.01 605.11 453.92 C 604.55 460.48 607.94 467.50 614.60 469.46 C 623.55 480.38 637.93 485.78 650.86 491.18 C 666.57 501.45 683.66 509.37 699.22 519.86 C 707.01 525.37 717.24 523.40 725.64 520.32 C 729.19 527.20 720.78 526.63 718.66 531.05 C 722.80 535.43 730.00 535.07 733.76 540.00 L 368.41 540.00 C 376.78 534.02 389.18 537.53 398.74 534.78 C 405.67 531.18 389.82 532.36 391.64 528.55 C 399.12 526.99 407.22 527.64 414.16 523.96 C 411.88 521.73 408.22 521.71 405.54 520.03 C 410.76 512.72 426.41 518.43 429.81 512.20 C 421.70 509.81 411.39 512.32 402.85 508.54 C 425.55 501.23 450.58 504.72 473.48 497.69 C 475.15 492.89 468.92 493.99 466.68 491.24 C 485.27 487.51 505.10 489.15 523.01 484.51 C 527.76 484.68 532.71 485.50 537.34 483.90 C 555.60 480.60 573.90 474.99 592.89 474.95 C 598.43 473.81 591.24 467.12 588.24 470.34 C 580.96 472.07 573.42 471.22 566.30 474.19 C 566.75 472.57 567.34 470.99 567.65 469.35 C 527.99 470.55 488.70 480.99 449.46 483.17 C 461.00 479.78 475.69 478.73 482.10 466.98 C 465.30 458.34 446.44 465.41 428.79 466.55 C 412.64 468.92 396.34 470.29 380.13 472.09 C 388.73 469.63 401.00 468.65 411.21 466.77 C 421.98 465.93 432.58 463.35 443.31 461.97 C 466.95 458.96 489.92 452.26 513.40 448.46 C 518.08 443.03 526.33 445.09 532.59 446.47 Z" />
</g>
<g id="#2e326aff">
<path fill="#2e326a" opacity="1.00" d=" M 599.50 444.59 C 608.51 441.54 622.00 441.63 628.09 450.09 C 627.08 456.02 619.77 453.27 615.90 452.03 C 615.26 457.55 622.00 459.52 625.27 462.59 C 651.64 476.06 677.41 493.67 706.99 498.06 C 719.63 503.15 730.42 513.40 745.02 511.98 C 755.33 511.69 743.78 520.03 751.36 521.64 C 764.88 526.26 778.66 530.18 791.62 536.40 C 798.03 539.99 792.72 528.59 795.97 528.02 C 794.38 532.97 796.14 536.87 801.16 536.05 C 802.35 537.05 800.22 538.77 799.96 540.00 L 733.76 540.00 C 730.00 535.07 722.80 535.43 718.66 531.05 C 720.78 526.63 729.19 527.20 725.64 520.32 C 717.24 523.40 707.01 525.37 699.22 519.86 C 683.66 509.37 666.57 501.45 650.86 491.18 C 637.93 485.78 623.55 480.38 614.60 469.46 C 607.94 467.50 604.55 460.48 605.11 453.92 C 601.14 450.01 598.05 454.56 599.37 459.58 C 591.36 461.39 586.30 451.65 578.01 453.96 C 571.65 453.51 558.10 451.71 555.92 449.11 C 568.68 443.80 585.44 449.22 599.50 444.59 Z" />
</g>
<g id="#606abcff">
<path fill="#606abc" opacity="1.00" d=" M 0.00 507.25 C 57.66 487.86 117.81 474.99 173.93 451.54 C 176.83 451.54 184.76 450.24 177.97 452.99 C 145.55 463.99 113.08 475.34 80.32 485.29 C 52.89 491.01 27.01 501.96 0.00 509.12 L 0.00 507.25 Z" />
</g>
<g id="#4c506cff">
<path fill="#4c506c" opacity="1.00" d=" M 359.50 463.37 C 379.94 456.70 401.96 459.14 423.01 456.06 C 429.56 456.43 441.02 453.18 443.31 461.97 C 432.58 463.35 421.98 465.93 411.21 466.77 C 386.70 466.55 362.66 474.77 338.01 475.14 C 347.44 479.93 327.06 478.00 324.83 486.88 C 359.80 492.60 397.41 492.47 430.02 477.05 C 434.20 473.96 435.62 467.11 428.79 466.55 C 446.44 465.41 465.30 458.34 482.10 466.98 C 475.69 478.73 461.00 479.78 449.46 483.17 C 398.02 488.47 346.65 495.75 295.28 502.15 C 296.02 500.20 296.77 498.25 297.36 496.25 C 303.11 489.72 309.99 484.30 315.84 477.88 C 321.35 474.16 329.29 470.92 329.20 463.24 C 334.54 462.61 339.93 462.53 345.30 462.12 C 349.95 463.14 354.73 463.99 359.50 463.37 Z" />
</g>
<g id="#686b81ff">
<path fill="#686b81" opacity="1.00" d=" M 338.01 475.14 C 362.66 474.77 386.70 466.55 411.21 466.77 C 401.00 468.65 388.73 469.63 380.13 472.09 C 396.34 470.29 412.64 468.92 428.79 466.55 C 435.62 467.11 434.20 473.96 430.02 477.05 C 397.41 492.47 359.80 492.60 324.83 486.88 C 327.06 478.00 347.44 479.93 338.01 475.14 Z" />
</g>
<g id="#23253eff">
<path fill="#23253e" opacity="1.00" d=" M 449.46 483.17 C 488.70 480.99 527.99 470.55 567.65 469.35 C 567.34 470.99 566.75 472.57 566.30 474.19 C 573.42 471.22 580.96 472.07 588.24 470.34 C 591.24 467.12 598.43 473.81 592.89 474.95 C 573.90 474.99 555.60 480.60 537.34 483.90 C 532.91 481.39 527.36 482.29 523.01 484.51 C 505.10 489.15 485.27 487.51 466.68 491.24 C 409.32 495.27 351.81 499.55 294.62 504.67 C 282.13 515.48 270.66 527.62 259.68 540.00 L 246.69 540.00 C 257.69 527.56 268.40 514.86 279.39 502.40 C 282.55 497.32 299.36 479.89 297.36 496.25 C 296.77 498.25 296.02 500.20 295.28 502.15 C 346.65 495.75 398.02 488.47 449.46 483.17 Z" />
</g>
<g id="#dce2faff">
<path fill="#dce2fa" opacity="1.00" d=" M 149.28 477.22 C 153.31 475.55 157.31 472.98 161.78 473.03 C 168.64 485.68 174.62 498.80 181.85 511.27 C 183.14 514.05 184.53 516.79 186.05 519.48 C 182.38 521.68 179.05 524.53 175.07 526.18 C 164.69 511.00 158.75 493.03 149.28 477.22 Z" />
</g>
<g id="#cfd4e9ff">
<path fill="#cfd4e9" opacity="1.00" d=" M 213.96 477.89 C 216.12 482.97 228.57 494.74 220.07 498.01 C 217.30 491.59 215.42 484.70 213.96 477.89 Z" />
</g>
<g id="#c9cedeff">
<path fill="#c9cede" opacity="1.00" d=" M 523.01 484.51 C 527.36 482.29 532.91 481.39 537.34 483.90 C 532.71 485.50 527.76 484.68 523.01 484.51 Z" />
</g>
<g id="#dde3fcff">
<path fill="#dde3fc" opacity="1.00" d=" M 118.25 489.23 C 123.31 486.96 128.46 484.73 133.84 483.30 C 143.99 499.85 152.10 517.73 160.96 535.02 C 158.96 536.88 156.67 538.37 154.48 540.00 L 143.46 540.00 C 135.76 522.79 125.99 506.46 118.25 489.23 Z" />
</g>
<g id="#3a3f59ff">
<path fill="#3a3f59" opacity="1.00" d=" M 294.62 504.67 C 351.81 499.55 409.32 495.27 466.68 491.24 C 468.92 493.99 475.15 492.89 473.48 497.69 C 450.58 504.72 425.55 501.23 402.85 508.54 C 411.39 512.32 421.70 509.81 429.81 512.20 C 426.41 518.43 410.76 512.72 405.54 520.03 C 408.22 521.71 411.88 521.73 414.16 523.96 C 407.22 527.64 399.12 526.99 391.64 528.55 C 389.82 532.36 405.67 531.18 398.74 534.78 C 389.18 537.53 376.78 534.02 368.41 540.00 L 259.68 540.00 C 270.66 527.62 282.13 515.48 294.62 504.67 Z" />
</g>
<g id="#dde4fcff">
<path fill="#dde4fc" opacity="1.00" d=" M 78.19 504.44 C 85.40 501.65 92.57 498.73 99.88 496.23 C 107.70 510.43 114.60 525.19 121.23 540.00 L 94.45 540.00 C 90.75 527.45 81.86 516.64 78.19 504.44 Z" />
</g>
<g id="#464b6dff">
<path fill="#464b6d" opacity="1.00" d=" M 211.99 522.97 C 229.26 512.33 243.42 492.98 266.07 497.01 C 253.52 512.17 238.74 525.29 225.68 540.00 L 189.48 540.00 C 196.48 533.68 204.55 528.73 211.99 522.97 Z" />
</g>
<g id="#dee4fdff">
<path fill="#dee4fd" opacity="1.00" d=" M 24.37 525.35 C 34.43 521.38 44.49 516.95 54.85 513.95 C 60.17 521.80 64.36 531.22 68.50 540.00 L 30.32 540.00 C 29.04 534.91 24.90 530.26 24.37 525.35 Z" />
</g>
<g id="#a0a2adff">
<path fill="#a0a2ad" opacity="1.00" d=" M 822.62 534.42 C 818.82 521.79 835.96 529.57 842.68 527.44 C 852.47 522.37 848.51 540.00 858.23 534.09 C 855.38 540.12 846.37 534.18 848.32 528.59 C 841.99 523.46 843.65 537.75 841.10 534.04 C 843.67 523.92 830.98 528.35 833.94 534.92 C 836.30 525.76 822.19 525.89 827.87 535.96 C 826.07 535.65 823.86 536.05 822.62 534.42 Z" />
</g>
<g id="#989aa4ff">
<path fill="#989aa4" opacity="1.00" d=" M 857.90 526.90 C 866.12 527.13 876.99 526.76 883.92 527.84 C 869.93 530.26 887.90 527.89 880.92 530.85 C 872.70 531.41 887.56 532.27 881.10 535.00 C 878.02 530.17 879.87 538.43 877.33 534.66 C 880.87 525.20 865.82 526.46 871.57 535.43 C 869.48 534.56 866.07 534.35 869.93 527.93 C 860.71 524.71 862.14 536.88 857.90 526.90 Z" />
</g>
<g id="#e6e6eaff">
<path fill="#e6e6ea" opacity="1.00" d=" M 795.97 528.02 C 800.18 527.62 796.91 534.95 801.16 536.05 C 796.14 536.87 794.38 532.97 795.97 528.02 Z" />
</g>
<g id="#595d8aff">
<path fill="#595d8a" opacity="1.00" d=" M 810.06 529.02 C 814.00 527.34 813.90 533.16 811.77 534.84 C 808.52 536.00 810.40 530.87 810.06 529.02 Z" />
</g>
<g id="#87898eff">
<path fill="#87898e" opacity="1.00" d=" M 853.20 530.17 C 857.05 533.23 848.88 533.38 853.20 530.17 Z" />
</g>
</svg>
